<svg width="600" height="600" viewBox="0 0 600 600" fill="none" xmlns="http://www.w3.org/2000/svg">
<path d="M181.5 169.5C158 137.5 158 127 151.5 87C46 113.5 57 183.5 53.5 204.5C53.5 242.5 68 290.305 114 310.5C196 346.5 224.506 366.5 220.5 396C216.1 428.4 172.667 429.167 151.5 425.5C110.3 419.1 75.6667 393.167 63.5 381L18 457.5C79.6 506.3 158.333 512.833 190 510C294 503.2 320.333 437.167 320.5 405C332.5 309.5 236.5 277 190 255.5C143.5 234 146.5 235 145 204.5C143.8 180.1 166 168.833 181.5 169.5Z" fill="#0097B2" stroke="black" stroke-width="5"/>
<path d="M569 101H454C448.5 148 424 183.5 381.5 212.5V419.5C388.5 386.5 415.5 352.5 473 365V181.5H569V101Z" fill="#0097B2"/>
<path d="M381.5 449L381 504H443C403.5 499 390.5 479.5 381.5 449Z" fill="#0097B2"/>
<path d="M569 101H454C448.5 148 424 183.5 381.5 212.5V419.5C388.5 386.5 415.5 352.5 473 365V181.5H569V101Z" stroke="black" stroke-width="5"/>
<path d="M381.5 449L381 504H443C403.5 499 390.5 479.5 381.5 449Z" stroke="black" stroke-width="5"/>
<circle cx="289" cy="100" r="70" fill="#545454"/>
<path d="M479 438C479 454.569 465.569 468 449 468C432.431 468 419 454.569 419 438C419 421.431 432.431 408 449 408C465.569 408 479 421.431 479 438Z" fill="#545454"/>
<path fill-rule="evenodd" clip-rule="evenodd" d="M472.862 538.182V576H482.003V560.803H496.905V576H506.027V538.182H496.905V553.361H482.003V538.182H472.862ZM385.862 538.182V576H412.232V568.577H395.003V560.803H410.884V553.361H395.003V545.605H412.232V538.182H385.862ZM89.304 550.52C89.1808 549.166 88.633 548.113 87.6605 547.362C86.7003 546.599 85.3276 546.217 83.5426 546.217C82.3608 546.217 81.3759 546.371 80.588 546.679C79.8002 546.987 79.2093 547.412 78.8153 547.953C78.4214 548.483 78.2183 549.092 78.2059 549.781C78.1813 550.348 78.2921 550.846 78.5383 551.277C78.7969 551.708 79.1662 552.09 79.6463 552.422C80.1387 552.742 80.7296 553.025 81.419 553.271C82.1084 553.518 82.884 553.733 83.7457 553.918L86.9957 554.656C88.8669 555.063 90.5166 555.604 91.9446 556.281C93.3849 556.958 94.5914 557.765 95.5639 558.7C96.5487 559.636 97.2935 560.713 97.7983 561.932C98.303 563.151 98.5615 564.517 98.5738 566.031C98.5615 568.42 97.9583 570.469 96.7642 572.18C95.5701 573.892 93.8527 575.203 91.6122 576.114C89.384 577.025 86.6941 577.48 83.5426 577.48C80.3788 577.48 77.6212 577.006 75.2699 576.058C72.9185 575.11 71.0904 573.67 69.7855 571.737C68.4806 569.805 67.8096 567.361 67.7727 564.406H76.5255C76.5994 565.625 76.9256 566.641 77.5042 567.453C78.0828 568.266 78.8769 568.881 79.8863 569.3C80.9081 569.718 82.0899 569.928 83.4318 569.928C84.6629 569.928 85.7093 569.761 86.571 569.429C87.4451 569.097 88.116 568.635 88.5838 568.044C89.0516 567.453 89.2916 566.776 89.304 566.013C89.2916 565.299 89.0701 564.689 88.6392 564.185C88.2083 563.668 87.5435 563.224 86.6449 562.855C85.7585 562.474 84.6259 562.123 83.2471 561.803L79.2954 560.879C76.0208 560.128 73.4417 558.916 71.5582 557.242C69.6747 555.555 68.7391 553.278 68.7514 550.409C68.7391 548.07 69.3669 546.02 70.6349 544.26C71.9029 542.5 73.6572 541.127 75.8977 540.142C78.1382 539.157 80.6927 538.665 83.5611 538.665C86.491 538.665 89.0331 539.163 91.1875 540.161C93.3541 541.145 95.0345 542.53 96.2287 544.315C97.4228 546.1 98.0322 548.169 98.0568 550.52H89.304ZM149.557 558.091C149.557 562.252 148.757 565.779 147.156 568.672C145.556 571.565 143.389 573.762 140.656 575.264C137.936 576.766 134.883 577.517 131.497 577.517C128.099 577.517 125.04 576.76 122.32 575.246C119.599 573.732 117.438 571.534 115.838 568.653C114.25 565.76 113.456 562.24 113.456 558.091C113.456 553.93 114.25 550.403 115.838 547.51C117.438 544.617 119.599 542.42 122.32 540.918C125.04 539.416 128.099 538.665 131.497 538.665C134.883 538.665 137.936 539.416 140.656 540.918C143.389 542.42 145.556 544.617 147.156 547.51C148.757 550.403 149.557 553.93 149.557 558.091ZM140.213 558.091C140.213 555.629 139.862 553.548 139.16 551.849C138.471 550.151 137.474 548.864 136.169 547.99C134.876 547.116 133.319 546.679 131.497 546.679C129.687 546.679 128.13 547.116 126.825 547.99C125.52 548.864 124.517 550.151 123.815 551.849C123.126 553.548 122.781 555.629 122.781 558.091C122.781 560.553 123.126 562.634 123.815 564.332C124.517 566.031 125.52 567.318 126.825 568.192C128.13 569.066 129.687 569.503 131.497 569.503C133.319 569.503 134.876 569.066 136.169 568.192C137.474 567.318 138.471 566.031 139.16 564.332C139.862 562.634 140.213 560.553 140.213 558.091ZM175.182 539.182H163.862V577H172.763V553.641H173.077L182.162 576.76H187.849L196.935 553.77H197.249V577H206.149V539.182H194.83L185.227 562.597H184.784L175.182 539.182ZM232.043 577H222.219L234.979 539.182H247.148L259.908 577H250.084L247.591 569.06H234.53L232.043 577ZM241.202 548.71L245.411 562.117H236.706L240.906 548.71H241.202ZM274.862 539.182V577H284.003V564.055H288.685L295.599 577H305.571L297.732 562.613C299.815 561.653 301.424 560.269 302.561 558.46C303.706 556.626 304.278 554.398 304.278 551.776C304.278 549.19 303.718 546.956 302.598 545.072C301.478 543.177 299.883 541.724 297.815 540.715C295.759 539.693 293.316 539.182 290.484 539.182H274.862ZM284.003 556.854H288.508C289.887 556.854 291.038 556.675 291.962 556.318C292.897 555.949 293.605 555.395 294.085 554.656C294.565 553.905 294.805 552.945 294.805 551.776C294.805 550.606 294.565 549.64 294.085 548.876C293.605 548.101 292.897 547.522 291.962 547.141C291.026 546.747 289.875 546.55 288.508 546.55H284.003V556.854ZM342.625 546.605V539.182H374.589V546.605H363.122V577H354.111V546.605H342.625ZM461.19 552.884H451.957C451.834 551.936 451.582 551.08 451.2 550.317C450.819 549.554 450.314 548.901 449.686 548.359C449.058 547.818 448.313 547.405 447.452 547.122C446.602 546.827 445.661 546.679 444.626 546.679C442.792 546.679 441.21 547.128 439.881 548.027C438.563 548.926 437.548 550.224 436.834 551.923C436.132 553.622 435.781 555.678 435.781 558.091C435.781 560.602 436.138 562.707 436.852 564.406C437.579 566.093 438.594 567.367 439.899 568.229C441.216 569.078 442.774 569.503 444.571 569.503C445.581 569.503 446.498 569.374 447.322 569.115C448.16 568.857 448.892 568.481 449.52 567.989C450.16 567.484 450.683 566.875 451.089 566.161C451.508 565.434 451.797 564.616 451.957 563.705L461.19 563.76C461.03 565.434 460.544 567.084 459.732 568.709C458.931 570.334 457.83 571.817 456.426 573.159C455.023 574.489 453.312 575.547 451.293 576.335C449.286 577.123 446.984 577.517 444.386 577.517C440.964 577.517 437.899 576.766 435.19 575.264C432.494 573.75 430.365 571.546 428.801 568.653C427.238 565.76 426.456 562.24 426.456 558.091C426.456 553.93 427.25 550.403 428.838 547.51C430.426 544.617 432.574 542.42 435.283 540.918C437.991 539.416 441.026 538.665 444.386 538.665C446.676 538.665 448.794 538.985 450.739 539.625C452.684 540.253 454.395 541.176 455.872 542.395C457.349 543.601 458.55 545.085 459.473 546.845C460.396 548.606 460.969 550.618 461.19 552.884Z" fill="#545454"/>
</svg>
