<svg width="300" height="300" viewBox="0 0 300 300" fill="none" xmlns="http://www.w3.org/2000/svg">
<g clip-path="url(#clip0_4_44)">
<rect width="300" height="300" fill="#7E7E7E"/>
<circle cx="162" cy="87" r="50" fill="#D9D9D9"/>
<path d="M262 237C262 223.868 259.413 210.864 254.388 198.732C249.362 186.599 241.997 175.575 232.711 166.289C223.425 157.003 212.401 149.638 200.268 144.612C188.136 139.587 175.132 137 162 137C148.868 137 135.864 139.587 123.732 144.612C111.599 149.638 100.575 157.003 91.2893 166.289C82.0035 175.575 74.6375 186.599 69.612 198.732C64.5866 210.864 62 223.868 62 237L162 237H262Z" fill="#D9D9D9"/>
</g>
<defs>
<clipPath id="clip0_4_44">
<rect width="300" height="300" fill="white"/>
</clipPath>
</defs>
</svg>
